# xmcd
#
# Track frame offsets: 
#        150
#        16595
#        35061
#        52528
#        71582
#        88197
#        105952
#        126901
#        143957
#        161829
#
# Disc length: 2422 seconds
#
# Revision: 0
# Processed by: cddbd v1.5.2PL0 Copyright (c) Steve Scherf et al.
# Submitted via: ExactAudioCopy v0.95a5
#
DISCID=7c09740a
DTITLE=卓文萱 - 習慣
DYEAR=2007
DGENRE=Pop
TTITLE0=Super NO.1
TTITLE1=對你的愛
TTITLE2=梁山伯與茱麗葉
TTITLE3=冬天的桔子
TTITLE4=長衣袖
TTITLE5=幸福調味
TTITLE6=可以不可以
TTITLE7=小空間大愛戀
TTITLE8=烏魯木齊小女人
TTITLE9=愛我好嗎
EXTD=
EXTT0=
EXTT1=
EXTT2=
EXTT3=
EXTT4=
EXTT5=
EXTT6=
EXTT7=
EXTT8=
EXTT9=
PLAYORDER=
